<svg xmlns="http://www.w3.org/2000/svg" viewBox="0 0 125.5 69.2"><polygon class="r" points="34.4 0 16.1 23 0 23 18.3 0 34.4 0"></polygon><polygon class="r" points="8.2 48.2 8.2 48.2 15.9 48.2 15.9 25.3 0.1 25.3 0.1 38 8.2 48.2"></polygon><polygon class="r" points="25.9 48.2 25.9 48.2 18.2 48.2 18.2 25.3 34.1 25.3 34.1 38 25.9 48.2"></polygon><polygon class="g" points="70.7 0 52.4 23 36.3 23 54.6 0 70.7 0"></polygon><polygon class="g" points="62.9 48.2 62.9 48.2 70.7 48.2 70.7 25.3 54.8 25.3 54.8 38 62.9 48.2"></polygon><rect class="b" x="73.1" width="15.9" height="23"></rect><polygon class="b" points="125.5 0 107.2 23 91.1 23 109.4 0 125.5 0"></polygon><polygon class="b" points="81.2 48.2 81.2 48.2 88.9 48.2 88.9 25.3 73.1 25.3 73.1 38 81.2 48.2"></polygon><polygon class="b" points="91.1 25.3 109.4 48.2 125.5 48.2 107.2 25.3 91.1 25.3"></polygon><path d="M8.1,56.5,4.7,60.6h0a4.7,4.7,0,0,1,1.7-.3,4,4,0,0,1,3.9,4.3c0,3-2.4,4.6-5.2,4.6a5.4,5.4,0,0,1-3.5-1.1A4.5,4.5,0,0,1-.1,64.8a8.9,8.9,0,0,1,2-4.9l2.6-3.4ZM7,64.7a1.9,1.9,0,0,0-2-2,2,2,0,0,0,0,4A1.9,1.9,0,0,0,7,64.7Z" transform="translate(0.1)"></path><path d="M21.4,63.7v2.5H20v2.5H17V66.2H11.1V64.1l4.7-7.6H20v7.2ZM17,59h0l-2.9,4.7H17Z" transform="translate(0.1)"></path><path d="M29.9,56.5h3.9l-4.9,5.8,5.3,6.4H30.1L26,63.4h0v5.3H22.8V56.5H26v5h0Z" transform="translate(0.1)"></path><rect class="a" x="39.1" y="67.6" width="1.1" height="1.14"></rect><path d="M47.9,57.7a3,3,0,0,0-2.7-1.6,2.5,2.5,0,0,0-2.5,2.5c0,1.4,1.3,2,2.4,2.5l2.5,1.3A2.9,2.9,0,0,1,49.1,65a4.1,4.1,0,0,1-8,1l.7-.3A3.4,3.4,0,0,0,45,68.1,3.3,3.3,0,0,0,48.3,65c0-1.5-1.6-2.1-2.7-2.7L43.2,61a2.5,2.5,0,0,1-1.3-2.3,3.2,3.2,0,0,1,3.3-3.4,3.7,3.7,0,0,1,3.2,1.9Z" transform="translate(0.1)"></path><path d="M64.1,62.1a6.8,6.8,0,1,1-6.8-6.8A6.9,6.9,0,0,1,64.1,62.1Zm-12.8,0a6,6,0,0,0,6,6,6,6,0,1,0-6-6Z" transform="translate(0.1)"></path><path d="M67,56.3v4.8h4.4v.8H67v6.8h-.8V55.5h5.3v.8Z" transform="translate(0.1)"></path><path d="M76.9,68.7h-.8V56.3H72.7v-.8h7.6v.8H76.9Z" transform="translate(0.1)"></path><path d="M85.5,66.8l5-12,4.9,12L99,55.5h.9L95.4,69.1l-5-12.2-5,12.2L81,55.5h.8Z" transform="translate(0.1)"></path><path d="M101.1,64.4l-1.8,4.3h-.9L104,55.1l5.5,13.6h-.9l-1.8-4.3Zm2.9-7.2-2.6,6.4h5.1Z" transform="translate(0.1)"></path><path d="M117.1,68.7h-.9l-4.3-6.2h-.4v6.2h-.9V55.5h1.7a4.6,4.6,0,0,1,3,.7,3.3,3.3,0,0,1,1.3,2.8c0,2.3-1.6,3.5-3.8,3.5Zm-4.6-7a3.5,3.5,0,0,0,2.3-.6,2.6,2.6,0,0,0,1-2.1,2.6,2.6,0,0,0-1.4-2.4,6.3,6.3,0,0,0-2.4-.3h-.5v5.4Z" transform="translate(0.1)"></path><path d="M120,56.3v4.8h5.3v.8H120v6h5.5v.8h-6.3V55.5h6.3v.8Z" transform="translate(0.1)"></path></svg>